<svg xmlns="http://www.w3.org/2000/svg" width="720" height="400" viewBox="0 0 720 400" font-family="ui-sans-serif,-apple-system,Segoe UI,Helvetica,Arial,sans-serif">
<rect width="720" height="400" fill="#ffffff"/>
<text x="68" y="24" font-size="15" font-weight="600" fill="#1c1c1c">F1 · frequency response rises, then wears out</text>
<text x="68" y="39" font-size="11" fill="#6b6b6b">peak at exposure 2, then −44% by the last impression the 72h window can hold</text>
<text x="14" y="196" font-size="11" fill="#6b6b6b" transform="rotate(-90 14 196)" text-anchor="middle">P(click | exposure)</text>
<text x="382" y="386" font-size="11" fill="#6b6b6b" text-anchor="middle">exposures to the same creative</text>
<rect x="68" y="22" width="10" height="10" fill="#2f6fb0" rx="2"/>
<text x="83" y="31" font-size="11" fill="#1c1c1c">P(click)</text>
<line x1="68" y1="348.0" x2="696" y2="348.0" stroke="#e4e4e4" stroke-width="1"/>
<text x="60" y="352.0" text-anchor="end" font-size="11" fill="#6b6b6b">0</text>
<line x1="68" y1="287.2" x2="696" y2="287.2" stroke="#e4e4e4" stroke-width="1"/>
<text x="60" y="291.2" text-anchor="end" font-size="11" fill="#6b6b6b">0.005</text>
<line x1="68" y1="226.4" x2="696" y2="226.4" stroke="#e4e4e4" stroke-width="1"/>
<text x="60" y="230.4" text-anchor="end" font-size="11" fill="#6b6b6b">0.01</text>
<line x1="68" y1="165.6" x2="696" y2="165.6" stroke="#e4e4e4" stroke-width="1"/>
<text x="60" y="169.6" text-anchor="end" font-size="11" fill="#6b6b6b">0.015</text>
<line x1="68" y1="104.8" x2="696" y2="104.8" stroke="#e4e4e4" stroke-width="1"/>
<text x="60" y="108.8" text-anchor="end" font-size="11" fill="#6b6b6b">0.02</text>
<line x1="68" y1="44.0" x2="696" y2="44.0" stroke="#e4e4e4" stroke-width="1"/>
<text x="60" y="48.0" text-anchor="end" font-size="11" fill="#6b6b6b">0.025</text>
<text x="68.0" y="366" text-anchor="middle" font-size="11" fill="#6b6b6b">0</text>
<text x="172.7" y="366" text-anchor="middle" font-size="11" fill="#6b6b6b">2</text>
<text x="277.3" y="366" text-anchor="middle" font-size="11" fill="#6b6b6b">4</text>
<text x="382.0" y="366" text-anchor="middle" font-size="11" fill="#6b6b6b">6</text>
<text x="486.7" y="366" text-anchor="middle" font-size="11" fill="#6b6b6b">8</text>
<text x="591.3" y="366" text-anchor="middle" font-size="11" fill="#6b6b6b">10</text>
<text x="696.0" y="366" text-anchor="middle" font-size="11" fill="#6b6b6b">12</text>
<line x1="68" y1="348" x2="696" y2="348" stroke="#1c1c1c" stroke-width="1.2"/>
<path d="M120.3,151.3 L172.7,78.5 L225.0,91.0 L277.3,133.0 L329.7,168.1 L382.0,197.4 L434.3,197.4 L486.7,197.4 L539.0,197.4 L591.3,197.4 L643.7,197.4 L696.0,197.4" fill="none" stroke="#2f6fb0" stroke-width="2.2" stroke-linejoin="round"/>
<circle cx="120.3" cy="151.3" r="2.8" fill="#2f6fb0"/>
<circle cx="172.7" cy="78.5" r="2.8" fill="#2f6fb0"/>
<circle cx="225.0" cy="91.0" r="2.8" fill="#2f6fb0"/>
<circle cx="277.3" cy="133.0" r="2.8" fill="#2f6fb0"/>
<circle cx="329.7" cy="168.1" r="2.8" fill="#2f6fb0"/>
<circle cx="382.0" cy="197.4" r="2.8" fill="#2f6fb0"/>
<circle cx="434.3" cy="197.4" r="2.8" fill="#2f6fb0"/>
<circle cx="486.7" cy="197.4" r="2.8" fill="#2f6fb0"/>
<circle cx="539.0" cy="197.4" r="2.8" fill="#2f6fb0"/>
<circle cx="591.3" cy="197.4" r="2.8" fill="#2f6fb0"/>
<circle cx="643.7" cy="197.4" r="2.8" fill="#2f6fb0"/>
<circle cx="696.0" cy="197.4" r="2.8" fill="#2f6fb0"/>
<text x="68" y="392" font-size="10" fill="#6b6b6b">adstock builds the rise; exposures_72h past wearout_free_exposures builds the fall</text>
</svg>
